# xmcd CD database file
#
# Track frame offsets:
#	150
#	21537
#	38987
#	53114
#	69785
#	87297
#	103702
#	123177
#	136095
#	152487
#	166217
#	185747
#	200805
#	216372
#	231475
#	247352
#	266315
#	282465
#
# Disc length: 3991 seconds
#
# Revision: 0
# Processed by: cddbd v1.4PL0 Copyright (c) Steve Scherf et al.
# Submitted via: Feurio! 1.66 - http://www.feurio.com
#
DISCID=0e0f9512
DTITLE=Kenny Rogers - The Very Best Of Kenny Rogers  Though The Years
DYEAR=2002
DGENRE=
TTITLE0=Through The Years
TTITLE1=We've Got Tonight
TTITLE2=Daytime Friends
TTITLE3=Don't Fall In Love With A Dreamer
TTITLE4=Lady
TTITLE5=You Decorated My Life
TTITLE6=Coward Of The County
TTITLE7=Ruby, Don't Take Your Love To Town
TTITLE8=Love Will Turn You Around
TTITLE9=What Are We Doin' In Love
TTITLE10=Something Is Burning
TTITLE11=Till I Can Make It On My Own
TTITLE12=I Don't Need You
TTITLE13=Just Dropped In
TTITLE14=Share Your Love With Me
TTITLE15=She Believes In Me
TTITLE16=Lucille
TTITLE17=Desperado
EXTD=
EXTT0=
EXTT1=
EXTT2=
EXTT3=
EXTT4=
EXTT5=
EXTT6=
EXTT7=
EXTT8=
EXTT9=
EXTT10=
EXTT11=
EXTT12=
EXTT13=
EXTT14=
EXTT15=
EXTT16=
EXTT17=
PLAYORDER=
